<?xml version="1.0" encoding="UTF-8"?><svg id="Capa_1" xmlns="http://www.w3.org/2000/svg" xmlns:xlink="http://www.w3.org/1999/xlink" viewBox="0 0 87.81 93.74"><defs><style>.cls-1{clip-path:url(#clippath);}.cls-2{fill:none;}.cls-2,.cls-3,.cls-4{stroke-width:0px;}.cls-3{fill:#ffb200;}.cls-4{fill:#6f57ff;}</style><clipPath id="clippath"><rect class="cls-2" x="313.75" y="10.63" width="1078.39" height="771.91"/></clipPath></defs><g class="cls-1"><image width="7582" height="1579" transform="translate(-1792.71 -13.65) scale(.51 .49)" xlink:href="../Assetsa/____7c3c92cf6d97848d0f49e253181104f1____sliderapp2-topaz-enhance-2.6x-faceai.jpg"/></g><path class="cls-4" d="M43.91,74.55c-16.23,0-29.43-13.2-29.43-29.43s13.2-29.43,29.43-29.43,29.43,13.2,29.43,29.43-13.2,29.43-29.43,29.43ZM43.91,18.38c-14.74,0-26.73,11.99-26.73,26.73s11.99,26.73,26.73,26.73,26.73-11.99,26.73-26.73-11.99-26.73-26.73-26.73Z"/><path class="cls-4" d="M44.76,73.99c-.32,0-.65-.1-.93-.3-.71-.51-.86-1.5-.35-2.21,5.11-7.02,7.92-16.39,7.92-26.36s-2.86-19.49-8.04-26.53c-.52-.7-.37-1.7.34-2.21.7-.52,1.7-.37,2.21.34,5.58,7.58,8.66,17.67,8.66,28.4s-3.03,20.67-8.53,28.23c-.31.43-.79.65-1.28.65Z"/><path class="cls-4" d="M43.69,73.99c-.49,0-.97-.23-1.28-.65-5.5-7.56-8.53-17.58-8.53-28.23s3.07-20.82,8.66-28.4c.52-.7,1.51-.85,2.21-.34.7.52.85,1.51.34,2.21-5.19,7.04-8.04,16.46-8.04,26.53s2.81,19.34,7.92,26.36c.51.71.36,1.7-.35,2.21-.28.2-.61.3-.93.3Z"/><path class="cls-4" d="M69.46,39.59H18.69c-.87,0-1.58-.71-1.58-1.58s.71-1.58,1.58-1.58h50.78c.87,0,1.58.71,1.58,1.58s-.71,1.58-1.58,1.58Z"/><path class="cls-4" d="M68.81,56.63H19.02c-.87,0-1.58-.71-1.58-1.58s.71-1.58,1.58-1.58h49.79c.87,0,1.58.71,1.58,1.58s-.71,1.58-1.58,1.58Z"/><circle class="cls-3" cx="62.58" cy="24.09" r="4.75"/><path class="cls-4" d="M62.58,30.42c-3.49,0-6.33-2.84-6.33-6.33s2.84-6.33,6.33-6.33,6.33,2.84,6.33,6.33-2.84,6.33-6.33,6.33ZM62.58,20.92c-1.75,0-3.17,1.42-3.17,3.17s1.42,3.17,3.17,3.17,3.17-1.42,3.17-3.17-1.42-3.17-3.17-3.17Z"/><circle class="cls-3" cx="35.72" cy="38.5" r="4.75"/><path class="cls-4" d="M35.72,44.84c-3.49,0-6.33-2.84-6.33-6.33s2.84-6.33,6.33-6.33,6.33,2.84,6.33,6.33-2.84,6.33-6.33,6.33ZM35.72,35.34c-1.75,0-3.17,1.42-3.17,3.17s1.42,3.17,3.17,3.17,3.17-1.42,3.17-3.17-1.42-3.17-3.17-3.17Z"/><circle class="cls-4" cx="51.77" cy="55.21" r="4.75"/><path class="cls-3" d="M51.77,61.54c-3.49,0-6.33-2.84-6.33-6.33s2.84-6.33,6.33-6.33,6.33,2.84,6.33,6.33-2.84,6.33-6.33,6.33ZM51.77,52.04c-1.75,0-3.17,1.42-3.17,3.17s1.42,3.17,3.17,3.17,3.17-1.42,3.17-3.17-1.42-3.17-3.17-3.17Z"/><circle class="cls-4" cx="28.19" cy="68.97" r="4.75"/><path class="cls-3" d="M28.19,75.3c-3.49,0-6.33-2.84-6.33-6.33s2.84-6.33,6.33-6.33,6.33,2.84,6.33,6.33-2.84,6.33-6.33,6.33ZM28.19,65.8c-1.75,0-3.17,1.42-3.17,3.17s1.42,3.17,3.17,3.17,3.17-1.42,3.17-3.17-1.42-3.17-3.17-3.17Z"/></svg>