<?xml version="1.0" encoding="UTF-8"?><svg id="Capa_1" xmlns="http://www.w3.org/2000/svg" viewBox="0 0 87.81 93.74"><defs><style>.cls-1{fill:#ffb200;}.cls-1,.cls-2{stroke-width:0px;}.cls-2{fill:#6f57ff;}</style></defs><path class="cls-1" d="M51.93,50.22c-1.72-1.85-4.12-2.95-6.66-2.95h-2.75c-.82,0-1.65-.34-2.2-.96s-.82-1.44-.75-2.33c.14-1.51,1.58-2.68,3.16-2.68h3.16c.89,0,1.65.62,1.85,1.51.14.55.62.96,1.24.96h3.57c.34,0,.69-.14.96-.41.21-.27.34-.62.34-.96-.34-3.71-3.23-6.59-6.86-7.07v-3.02c0-.69-.55-1.24-1.24-1.24h-3.5c-.69,0-1.24.55-1.24,1.24v3.09c-4.6.82-7.76,5.08-7.27,9.75.41,4.53,4.53,8.1,9.33,8.1h2.2c.82,0,1.65.34,2.2.96s.82,1.44.75,2.33c-.14,1.51-1.51,2.68-3.16,2.68h-3.16c-.89,0-1.65-.62-1.85-1.51-.14-.55-.62-.96-1.24-.96h-3.57c-.34,0-.69.14-.96.41-.21.27-.34.62-.27.96.34,3.71,3.23,6.59,6.86,7.07v3.02c0,.69.55,1.24,1.24,1.24h3.5c.69,0,1.24-.55,1.24-1.24v-3.16c3.98-.82,7-4.05,7.34-7.89.27-2.54-.55-5.01-2.26-6.93Z"/><path class="cls-2" d="M43.91,19.54c-16.96,0-30.75,13.79-30.75,30.75s13.79,30.75,30.75,30.75,30.75-13.79,30.75-30.75-13.79-30.75-30.75-30.75ZM17.21,50.29c0-6.31,2.2-12.08,5.83-16.68l7.69,7.69c.48-2.06,1.51-3.91,2.95-5.35l-6.45-6.45c4.53-3.64,10.36-5.83,16.61-5.83,14.69,0,26.7,11.94,26.7,26.7,0,6.31-2.2,12.08-5.83,16.61l-7.62-7.69c-.48,2.06-1.51,3.84-3.02,5.35l6.45,6.52c-4.53,3.64-10.36,5.83-16.61,5.83-14.69,0-26.7-12.01-26.7-26.7Z"/></svg>