<?xml version="1.0" encoding="UTF-8"?><svg id="Capa_1" xmlns="http://www.w3.org/2000/svg" viewBox="0 0 172.65 172.65"><defs><style>.cls-1{fill:#ffb200;}.cls-1,.cls-2{stroke-width:0px;}.cls-2{fill:#6f57ff;}</style></defs><g id="tooth"><path class="cls-1" d="M48.59,54.39c-.67,0-1.34-.26-1.85-.77l-6.69-6.69c-1.02-1.02-1.02-2.68,0-3.7,1.02-1.02,2.68-1.02,3.7,0l6.69,6.69c1.02,1.02,1.02,2.68,0,3.7-.51.51-1.18.77-1.85.77Z"/><path class="cls-1" d="M46.2,61.56h-3.82c-1.45,0-2.62-1.17-2.62-2.62s1.17-2.62,2.62-2.62h3.82c1.45,0,2.62,1.17,2.62,2.62s-1.17,2.62-2.62,2.62Z"/><path class="cls-1" d="M55.76,52c-1.45,0-2.62-1.17-2.62-2.62v-3.82c0-1.45,1.17-2.62,2.62-2.62s2.62,1.17,2.62,2.62v3.82c0,1.45-1.17,2.62-2.62,2.62Z"/><path class="cls-2" d="M128.45,77.63c-1.45,0-2.62-1.17-2.62-2.62,0-11.63-9.46-21.1-21.1-21.1-4.88,0-9.63,1.7-13.39,4.79-1.12.92-2.76.76-3.68-.36-.92-1.12-.76-2.77.36-3.68,4.69-3.86,10.63-5.98,16.71-5.98,14.52,0,26.33,11.81,26.33,26.33,0,1.45-1.17,2.62-2.62,2.62Z"/><path class="cls-2" d="M110.2,134.18c-5.18,0-8.87-3.54-9.88-9.48-1.09-6.74-5.22-20.62-11.1-20.62s-9.99,13.79-11.09,20.53c-.62,5.82-4.5,9.57-9.89,9.57-3.12,0-7.34-1.57-9.76-9.02-.79-1.96-10.19-25.61-10.19-50.15,0-1.45,1.17-2.62,2.62-2.62s2.62,1.17,2.62,2.62c0,24.03,9.74,48.02,9.84,48.26l.07.2c1.76,5.48,4.05,5.48,4.81,5.48,3.78,0,4.54-3.46,4.69-4.95l.02-.15c.41-2.56,4.35-25.01,16.27-25.01s15.86,22.45,16.27,25.01c.57,3.37,2.16,5.1,4.71,5.1,2.1,0,3.11-1.49,4.89-5.7.13-.29,10.74-24.26,10.74-48.24,0-1.45,1.17-2.62,2.62-2.62s2.62,1.17,2.62,2.62c0,25.13-10.72,49.31-11.17,50.33-1.57,3.7-3.74,8.84-9.69,8.84Z"/><path class="cls-2" d="M50.92,77.63c-1.45,0-2.62-1.17-2.62-2.62,0-14.52,11.81-26.33,26.33-26.33,6.08,0,12.02,2.12,16.71,5.98,1.12.92,1.28,2.57.36,3.68-.92,1.12-2.57,1.28-3.68.36-3.76-3.09-8.51-4.79-13.39-4.79-11.63,0-21.1,9.46-21.1,21.1,0,1.45-1.17,2.62-2.62,2.62Z"/><path class="cls-1" d="M59.58,78.08c-1.45,0-2.62-1.17-2.62-2.62,0-9.99,8.13-18.12,18.12-18.12,1.45,0,2.62,1.17,2.62,2.62s-1.17,2.62-2.62,2.62c-7.11,0-12.89,5.78-12.89,12.89,0,1.45-1.17,2.62-2.62,2.62Z"/><path class="cls-2" d="M108.84,66.91c-.13,0-.27-.01-.4-.03-2.69-.42-5.41-1.09-8.09-2.01-1.37-.47-2.1-1.96-1.63-3.32.47-1.37,1.96-2.09,3.32-1.63,2.39.82,4.81,1.42,7.19,1.79,1.43.22,2.41,1.56,2.19,2.99-.2,1.29-1.31,2.22-2.58,2.22Z"/><path class="cls-2" d="M95.56,62.67c-.39,0-.78-.09-1.15-.27-5.17-2.53-8.29-5.09-8.42-5.2-1.11-.92-1.27-2.57-.34-3.68.92-1.11,2.57-1.27,3.68-.35h0s2.8,2.29,7.37,4.53c1.3.63,1.84,2.2,1.2,3.5-.45.93-1.38,1.47-2.35,1.47Z"/></g></svg>