<?xml version="1.0" encoding="UTF-8"?><svg id="Capa_1" xmlns="http://www.w3.org/2000/svg" viewBox="0 0 87.81 93.74"><defs><style>.cls-1{fill:#6f57ff;stroke-width:0px;}</style></defs><path class="cls-1" d="M72.49,71.55h-16.99v-7.72h10.04c1.68,0,3.26-.66,4.43-1.88,1.17-1.21,1.79-2.8,1.75-4.49-.1-3.31-2.96-5.99-6.37-5.99h-5.52l-8.53-19.95c-.93-2.17-2.58-3.83-4.57-4.75,1.12-1.23,1.81-2.87,1.81-4.66,0-3.83-3.12-6.95-6.95-6.95s-6.95,3.12-6.95,6.95c0,1.97.83,3.74,2.14,5.01-3.55,1.78-6,5.44-6,9.67v34.76h-6.18c-.54,0-1.07.08-1.58.21-.29-3.57-3.28-6.39-6.92-6.39-3.83,0-6.95,3.12-6.95,6.95s3.12,6.95,6.95,6.95c.85,0,1.67-.16,2.42-.44.53,2.88,3.05,5.08,6.08,5.08h47.89c3.41,0,6.18-2.77,6.18-6.18,0-3.41-2.77-6.18-6.18-6.18h0ZM16.1,76.18c-2.13,0-3.86-1.73-3.86-3.86s1.73-3.86,3.86-3.86,3.86,1.73,3.86,3.86-1.73,3.86-3.86,3.86ZM65.34,54.56c1.76,0,3.23,1.34,3.28,3,.02.84-.29,1.64-.87,2.25-.59.6-1.38.93-2.22.93h-11.59c-.85,0-1.54.7-1.54,1.54v9.27h-6.18v-14.68c0-1.27,1.04-2.32,2.32-2.32h16.8ZM41.59,18.25c2.13,0,3.86,1.73,3.86,3.86s-1.73,3.86-3.86,3.86-3.86-1.73-3.86-3.86,1.73-3.86,3.86-3.86ZM43.13,80.82h-18.54c-1.71,0-3.09-1.38-3.09-3.09s1.38-3.09,3.09-3.09h18.54v6.18ZM43.13,71.55h-9.27v-12.36h9.27v12.36ZM43.19,56.1h-9.33v-19.31c0-4.26,3.47-7.72,7.72-7.72h1.54c.16,0,.32,0,.48.02,2.06.16,3.96,1.59,4.84,3.65l8.01,18.73h-5.91l-4.28-10c-.33-.78-1.24-1.15-2.02-.81-.79.33-1.15,1.24-.81,2.02l3.82,8.95c-2.12.51-3.75,2.28-4.07,4.47h0ZM72.49,80.82h-26.26v-6.18h26.26c1.71,0,3.09,1.38,3.09,3.09,0,1.71-1.38,3.09-3.09,3.09h0Z"/></svg>