<?xml version="1.0" standalone="no"?>
<!DOCTYPE svg PUBLIC "-//W3C//DTD SVG 20010904//EN"
 "http://www.w3.org/TR/2001/REC-SVG-20010904/DTD/svg10.dtd">
<svg version="1.0" xmlns="http://www.w3.org/2000/svg"
 width="290.000000pt" height="286.000000pt" viewBox="0 0 290.000000 286.000000"
 preserveAspectRatio="xMidYMid meet">

<g transform="translate(0.000000,286.000000) scale(0.100000,-0.100000)"
fill="#000000" stroke="none">
<path d="M1225 2403 c-223 -69 -352 -161 -463 -331 -131 -201 -145 -352 -56
-593 14 -36 31 -74 38 -85 13 -17 15 -16 35 16 23 38 23 39 -9 120 -77 194
-60 329 61 505 59 86 113 139 206 203 197 135 416 146 662 35 149 -67 284
-194 344 -325 13 -28 17 -66 17 -180 0 -148 6 -181 52 -278 33 -70 58 -143 58
-167 0 -18 -8 -23 -37 -29 -21 -4 -41 -12 -45 -18 -4 -6 -8 -79 -8 -161 0
-207 12 -195 -191 -195 -184 0 -207 -7 -240 -71 -18 -35 -20 -54 -16 -142 2
-56 8 -114 12 -130 14 -50 -4 -57 -139 -57 -219 0 -499 19 -514 34 -11 11 -12
33 -5 112 10 105 1 310 -16 353 -5 14 -19 58 -31 96 -28 89 -44 113 -64 96
-29 -25 -27 -60 10 -173 32 -95 37 -123 37 -206 1 -54 -5 -148 -13 -210 -10
-80 -11 -119 -3 -130 10 -17 65 -22 408 -36 66 -3 184 -8 262 -12 l142 -7 7
27 c3 14 -2 70 -12 124 -22 118 -22 168 0 210 26 51 42 54 179 41 118 -11 126
-10 173 10 76 33 86 58 83 219 -2 74 1 136 7 141 5 5 26 14 47 21 64 20 63 85
-3 246 -66 159 -68 169 -72 330 -4 149 -5 153 -38 218 -37 74 -146 193 -220
242 -75 49 -203 106 -300 134 -69 20 -284 22 -345 3z"/>
</g>
</svg>
