<?xml version="1.0" encoding="UTF-8"?><svg id="Capa_1" xmlns="http://www.w3.org/2000/svg" viewBox="0 0 99.44 105.17"><defs><style>.cls-1,.cls-2,.cls-3,.cls-4,.cls-5{stroke-width:0px;}.cls-1,.cls-5{fill:#6e57ff;}.cls-6{opacity:.8;}.cls-2{fill:#ffb200;}.cls-3{fill:#6f57ff;}.cls-4{fill:#fff;}.cls-5{isolation:isolate;opacity:.2;}</style></defs><rect class="cls-4" x="5.31" y="7.82" width="87.95" height="87.95" rx="12" ry="12"/><path class="cls-3" d="M50.19,53.43c-1.17,0-1.9-.73-2.19-1.9l-2.33-16.19s0-.15-.15-.15h0c-.15,0-.15.15-.15.15l-1.75,11.67c-.15,1.02-1.02,1.75-2.04,1.9-1.02,0-1.9-.58-2.19-1.6h0l-.58-2.33c-.15-.58-.73-1.02-1.17-1.02-.58,0-.88-.44-.88-.88s.44-.88.88-.88c1.46,0,2.77,1.02,3.06,2.48h0l.58,2.33s0,.15.29.15c.15,0,.15-.15.29-.15l1.6-11.52c.15-1.02,1.02-1.75,2.04-1.75h0c1.02,0,1.9.73,2.04,1.75l2.33,15.9s0,.29.29.15c.29,0,.29-.15.29-.29l.29-2.92c0-.58.58-.88,1.02-.88.58,0,.88.58.88,1.02l-.29,2.92c-.15,1.31-1.02,2.04-2.19,2.04h0Z"/><path class="cls-2" d="M56.17,48.03h0c-1.02,0-1.9-.73-2.04-1.75l-.73-4.52h0l-.44,3.5c0,.58-.58.88-1.02.88-.58,0-.88-.58-.88-1.02l.44-3.5c.15-1.02.88-1.6,1.9-1.75,1.02,0,1.75.58,1.9,1.6l.73,4.52s0,.15.15.15.15,0,.15-.15l.29-1.46h0c.44-1.6,1.75-2.77,3.35-2.77.58,0,.88.44.88.88s-.44.88-.88.88c-.73,0-1.31.58-1.6,1.31l-.29,1.46h0c-.15,1.17-.88,1.75-1.9,1.75h0Z"/><g class="cls-6"><path class="cls-5" d="M34.73,66.7v-29.17c0-5.98,4.81-10.79,10.65-10.79h-6.56c-5.98,0-10.79,4.81-10.79,10.79v29.17c0,5.98,4.81,10.79,10.79,10.79h6.56c-5.83,0-10.65-4.81-10.65-10.79h0Z"/></g><path class="cls-3" d="M58.8,79.54h-19.84c-7.15,0-12.84-5.83-12.84-12.84v-29.17c0-7.15,5.83-12.84,12.84-12.84h19.69c7.15,0,12.84,5.83,12.84,12.84v29.17c.15,7.15-5.69,12.84-12.69,12.84ZM38.96,28.92c-4.67,0-8.61,3.79-8.61,8.61v29.17c0,4.67,3.79,8.61,8.61,8.61h19.69c4.67,0,8.61-3.79,8.61-8.61v-29.17c0-4.67-3.79-8.61-8.61-8.61h-19.69Z"/><path class="cls-1" d="M53.11,68.16c0-1.02-.73-1.75-1.75-1.75h-12.98c-1.02,0-1.75.73-1.75,1.75s.73,1.75,1.75,1.75h12.98c.88,0,1.75-.73,1.75-1.75h0Z"/><path class="cls-1" d="M61.28,68.16c0-1.02-.73-1.75-1.75-1.75h-12.98c-1.02,0-1.75.73-1.75,1.75s.73,1.75,1.75,1.75h12.98c1.02,0,1.75-.73,1.75-1.75h0Z"/><path class="cls-1" d="M52.96,58.53c0-1.02-.73-1.75-1.75-1.75h-12.98c-1.02,0-1.75.73-1.75,1.75s.73,1.75,1.75,1.75h12.98c1.02.15,1.75-.73,1.75-1.75h0Z"/><path class="cls-1" d="M61.28,58.53c0-1.02-.73-1.75-1.75-1.75h-12.98c-1.02,0-1.75.73-1.75,1.75s.73,1.75,1.75,1.75h12.98c.88.15,1.75-.73,1.75-1.75h0Z"/></svg>