<?xml version="1.0" encoding="UTF-8"?><svg id="Capa_1" xmlns="http://www.w3.org/2000/svg" viewBox="0 0 87.81 93.74"><defs><style>.cls-1{fill:#6f57ff;stroke-width:0px;}</style></defs><path class="cls-1" d="M73.34,53.34h-.77v-1.55c0-2.56-2.09-4.65-4.65-4.65h-13.94v-29.44c0-.85.7-1.55,1.55-1.55h5.42c.85,0,1.55.7,1.55,1.55s.7,1.55,1.55,1.55,1.55-.7,1.55-1.55c0-2.56-2.09-4.65-4.65-4.65h-5.42c-2.56,0-4.65,2.09-4.65,4.65v.23c-.46-.15-1.01-.23-1.55-.23h-5.42c-2.56,0-4.65,2.09-4.65,4.65v3.18c-2.17.39-3.87,2.25-3.87,4.57v4.65c0,2.56,2.09,4.65,4.65,4.65h1.55c2.56,0,4.65-2.09,4.65-4.65v-4.65c0-2.32-1.7-4.18-3.87-4.57v-3.18c0-.85.7-1.55,1.55-1.55h5.42c.85,0,1.55.7,1.55,1.55v24.79h-20.14v-3.1c0-2.56-2.09-4.65-4.65-4.65h-6.2v-2.32c0-3.02-2.4-5.42-5.42-5.42s-5.42,2.4-5.42,5.42v22.47c0,2.56,2.09,4.65,4.65,4.65h6.2v7.98c-2.25.7-3.87,2.71-3.87,5.19,0,3.02,2.4,5.42,5.42,5.42s5.42-2.4,5.42-5.42c0-2.48-1.63-4.49-3.87-5.19v-.23h41.83v.23c-2.25.7-3.87,2.71-3.87,5.19,0,3.02,2.4,5.42,5.42,5.42s5.42-2.4,5.42-5.42c0-2.48-1.63-4.49-3.87-5.19v-7.98h5.42c3.02,0,5.42-2.4,5.42-5.42s-2.4-5.42-5.42-5.42ZM43.13,30.1v4.65c0,.85-.7,1.55-1.55,1.55h-1.55c-.85,0-1.55-.7-1.55-1.55v-4.65c0-.85.7-1.55,1.55-1.55h1.55c.85,0,1.55.7,1.55,1.55ZM19.89,42.49h6.2c.85,0,1.55.7,1.55,1.55v3.1h-7.75v-4.65ZM19.89,50.24h48.03c.85,0,1.55.7,1.55,1.55v1.55H19.89v-3.1ZM23.76,77.36c0,1.24-1.01,2.32-2.32,2.32s-2.32-1.08-2.32-2.32c0-1.32,1.01-2.32,2.32-2.32s2.32,1.01,2.32,2.32ZM22.99,68.83v-4.65h41.83v4.65H22.99ZM68.7,77.36c0,1.24-1.01,2.32-2.32,2.32s-2.32-1.08-2.32-2.32c0-1.32,1.01-2.32,2.32-2.32s2.32,1.01,2.32,2.32ZM73.34,61.09H13.69c-.85,0-1.55-.7-1.55-1.55v-22.47c0-1.32,1.01-2.32,2.32-2.32s2.32,1.01,2.32,2.32v17.82c0,.85.7,1.55,1.55,1.55h55c1.32,0,2.32,1.01,2.32,2.32,0,1.24-1.01,2.32-2.32,2.32Z"/></svg>