<?xml version="1.0" encoding="UTF-8"?><svg id="Capa_1" xmlns="http://www.w3.org/2000/svg" xmlns:xlink="http://www.w3.org/1999/xlink" viewBox="0 0 99.44 105.17"><defs><style>.cls-1{clip-path:url(#clippath);}.cls-2{fill:none;}.cls-2,.cls-3,.cls-4,.cls-5,.cls-6{stroke-width:0px;}.cls-3,.cls-6{fill:#6e57ff;}.cls-7{clip-path:url(#clippath-1);}.cls-4{fill:#ffb200;}.cls-5{fill:#fff;}.cls-6{isolation:isolate;opacity:.2;}</style><clipPath id="clippath"><rect class="cls-2" x="30.21" y="27.65" width="41.49" height="41.49"/></clipPath><clipPath id="clippath-1"><rect class="cls-2" x="30.21" y="27.65" width="41.49" height="41.49"/></clipPath></defs><rect class="cls-5" x="5.31" y="7.75" width="87.95" height="87.95" rx="12" ry="12"/><path class="cls-6" d="M29.56,63.8v-9.62c0-3.25,2.21-5.85,5.2-6.5h-5.46c-3.77,0-6.76,2.99-6.76,6.76v9.49c0,3.38,2.73,6.11,6.11,6.11h6.89c-3.25-.13-5.98-2.86-5.98-6.24Z"/><path class="cls-3" d="M75.21,57.82c1.56,1.56,2.47,3.77,2.47,5.98,0,3.77-2.6,7.02-5.98,8.06v2.6c0,1.3-1.04,2.21-2.21,2.21-1.3,0-2.21-1.04-2.21-2.21v-2.21H31.64v2.21c0,1.3-1.04,2.21-2.21,2.21-1.3,0-2.21-1.04-2.21-2.21v-2.34c-3.77-.78-6.76-4.16-6.76-8.19v-9.49c0-4.94,4.03-8.97,8.97-8.97h5.2c4.94,0,8.97,4.03,8.97,8.97v3.25c0,1.3-1.04,2.21-2.21,2.21h-9.49c-1.3,0-2.21-1.04-2.21-2.21,0-1.3,1.04-2.21,2.21-2.21h7.28v-1.04c0-2.47-1.95-4.42-4.42-4.42h-5.2c-2.47,0-4.42,1.95-4.42,4.42v9.49c0,2.08,1.69,3.9,3.9,3.9h40.58c2.08,0,3.9-1.69,3.9-3.9,0-1.04-.39-2.08-1.17-2.73-.78-.78-1.69-1.17-2.73-1.17h-19.12c-1.3,0-2.21-1.04-2.21-2.21s1.04-2.21,2.21-2.21h19.12c1.95-.26,4.03.65,5.59,2.21h0Z"/><g class="cls-1"><path class="cls-6" d="M57.52,37.79c0-3.9,2.6-7.28,6.24-8.19-.78-.26-1.56-.39-2.34-.39-4.68,0-8.58,3.9-8.58,8.58s3.9,8.58,8.58,8.58c.78,0,1.56-.13,2.34-.39-3.51-.91-6.24-4.29-6.24-8.19h0Z"/></g><g class="cls-7"><path class="cls-3" d="M71.7,37.79c0-5.59-4.55-10.14-10.14-10.14s-10.14,4.55-10.14,10.14,4.55,10.14,10.14,10.14c5.59.13,10.14-4.55,10.14-10.14h0ZM68.44,37.79c0,3.9-3.12,7.02-7.02,7.02s-7.02-3.12-7.02-7.02,3.12-7.02,7.02-7.02,7.02,3.25,7.02,7.02h0Z"/></g><path class="cls-4" d="M65.19,37.01h-2.86v-2.86c0-.52-.39-.91-.91-.91s-.91.39-.91.91v2.86h-2.86c-.52,0-.91.39-.91.91s.39.91.91.91h2.86v2.86c0,.52.39.91.91.91s.91-.39.91-.91v-2.86h2.86c.52,0,.91-.39.91-.91,0-.52-.39-.91-.91-.91h0Z"/></svg>