<?xml version="1.0" encoding="UTF-8"?><svg id="Capa_1" xmlns="http://www.w3.org/2000/svg" viewBox="0 0 99.44 105.17"><defs><style>.cls-1{fill:#6e57ff;}.cls-1,.cls-2,.cls-3{stroke-width:0px;}.cls-2{fill:#ffb200;}.cls-3{fill:#fff;}</style></defs><rect class="cls-3" x="5.31" y="7.62" width="87.95" height="87.95" rx="12" ry="12"/><path class="cls-1" d="M74.31,53.88h-13.7c-.57-6.66-4-12.94-9.33-16.94-1.52-1.14-3.43-1.33-4.95-.76.76-1.14,1.14-2.47,1.14-3.81,0-4-3.24-7.23-7.23-7.23s-7.23,3.24-7.23,7.23,3.24,7.23,7.23,7.23c1.14,0,2.09-.19,3.05-.57l-3.24,6.09-6.66,6.66c-.57.57-.95,1.33-1.33,2.09h-9.33c-.95,0-1.71.76-1.71,1.71s.76,1.71,1.71,1.71h1.71v20.94c0,.95.76,1.71,1.71,1.71s2.09-.57,2.09-1.52v-20.94h3.81c.19.76.76,1.52,1.33,2.09,2.09,2.09,5.52,2.09,7.61,0l2.09-2.09h6.66v17.32c0,3.05,2.47,5.33,5.33,5.33,3.05,0,5.33-2.47,5.33-5.33v-17.32h8.37v20.94c0,.95.76,1.71,1.71,1.71s1.71-.76,1.71-1.71v-20.94h1.71c.95,0,1.71-.76,1.71-1.71.57-1.14-.19-1.9-1.33-1.9ZM40.24,35.8c-1.9,0-3.62-1.52-3.62-3.62,0-1.9,1.52-3.62,3.62-3.62,1.9,0,3.62,1.52,3.62,3.62s-1.71,3.62-3.62,3.62ZM46.71,53.88c1.71-1.71,1.9-1.9,2.28-2.66.38.76.57,1.71.57,2.66h-2.86ZM50.52,46.26c-.76-1.14-2.47-.95-3.05.19l-1.33,2.66c0,.19-.19.38-.38.38l-4.57,4.57h0l-2.47,2.47c-.76.76-1.9.76-2.47,0-.76-.76-.76-1.9,0-2.47l6.85-6.85c.19-.19.19-.38.38-.38,3.43-6.85,3.24-6.66,3.43-6.85.57-.76,1.71-.95,2.47-.38,4.38,3.43,7.23,8.57,7.8,14.09h-3.62c-.57-2.66-1.52-5.14-3.05-7.42ZM56.99,74.81c0,.95-.76,1.71-1.71,1.71s-1.71-.76-1.71-1.71v-17.32h3.62l-.19,17.32h0Z"/><path class="cls-2" d="M22.92,53.88c-.95,0-1.71.76-1.71,1.71s.76,1.71,1.71,1.71h1.71v20.94c0,.95.76,1.71,1.71,1.71s1.71-.76,1.71-1.71v-20.94h3.81v-3.62l-8.95.19Z"/><path class="cls-2" d="M74.31,53.88h-13.89v3.62h8.37v20.94c0,.95.76,1.71,1.71,1.71s1.71-.76,1.71-1.71v-20.94h1.71c.95,0,1.71-.76,1.71-1.71.57-1.14-.19-1.9-1.33-1.9Z"/><polygon class="cls-2" points="46.71 53.88 43.09 57.3 49.75 57.3 49.75 53.88 46.71 53.88"/><polygon class="cls-2" points="53.37 53.88 53.37 57.3 56.99 57.3 56.99 53.88 53.37 53.88"/></svg>