<?xml version="1.0" encoding="UTF-8"?><svg id="Capa_1" xmlns="http://www.w3.org/2000/svg" xmlns:xlink="http://www.w3.org/1999/xlink" viewBox="0 0 87.81 93.74"><defs><style>.cls-1{clip-path:url(#clippath);}.cls-2{fill:none;}.cls-2,.cls-3,.cls-4{stroke-width:0px;}.cls-3{fill:#ffb200;}.cls-4{fill:#6f57ff;}</style><clipPath id="clippath"><rect class="cls-2" x="313.75" y="-733.89" width="1078.39" height="771.91"/></clipPath></defs><g class="cls-1"><image width="7582" height="1579" transform="translate(-1792.71 -758.17) scale(.51 .49)" xlink:href="../Assetsa/____7c3c92cf6d97848d0f49e253181104f1____sliderapp2-topaz-enhance-2.6x-faceai.jpg"/></g><path class="cls-4" d="M37.97,49.86h3.96v3.96h-3.96v-3.96Z"/><path class="cls-4" d="M37.97,57.78h3.96v3.96h-3.96v-3.96Z"/><path class="cls-4" d="M45.88,49.86h3.96v3.96h-3.96v-3.96Z"/><path class="cls-4" d="M45.46,57.78h3.96v3.96h-3.96v-3.96Z"/><path class="cls-4" d="M73.29,73.61h-9.89V27.74h3.96v39.93c0,.71.38,1.36.99,1.71.61.35,1.37.35,1.98,0s.99-1.01.99-1.71V25.76c0-.52-.21-1.03-.58-1.4s-.87-.58-1.4-.58h-5.94v-5.94c0-.52-.21-1.03-.58-1.4s-.87-.58-1.4-.58H26.4c-.52,0-1.03.21-1.4.58s-.58.87-.58,1.4v5.94h-5.94c-.52,0-1.03.21-1.4.58-.37.37-.58.87-.58,1.4v47.84h-1.98c-.71,0-1.36.38-1.71.99-.35.61-.35,1.37,0,1.98s1.01.99,7.86.99h51.36c2.15,0,2.61-.38,2.96-.99.35-.61.35-1.37,0-1.98-.35-.61-1.01-.99-1.71-.99ZM20.46,27.74h3.96v39.93c0,.71.38,1.36.99,1.71.61.35,1.37.35,1.98,0s.99-1.01.99-1.71V19.83h31.06v53.78h-9.08v-5.94c0-.52-.21-1.03-.58-1.4s-.87-.58-1.4-.58h-7.91c-.52,0-1.03.21-1.4.58s-.58.87-.58,1.4v5.94h-18.02V27.74ZM46.4,73.61h-3.96v-3.96h3.96v3.96Z"/><rect class="cls-3" x="42.19" y="25.23" width="3.44" height="14.98" transform="translate(76.63 -11.18) rotate(90)"/><rect class="cls-3" x="42.19" y="25.23" width="3.44" height="14.98"/></svg>