<?xml version="1.0" encoding="UTF-8"?><svg id="Capa_1" xmlns="http://www.w3.org/2000/svg" xmlns:xlink="http://www.w3.org/1999/xlink" viewBox="0 0 99.44 105.17"><defs><style>.cls-1{clip-path:url(#clippath);}.cls-2{fill:none;}.cls-2,.cls-3,.cls-4,.cls-5,.cls-6{stroke-width:0px;}.cls-7{clip-path:url(#clippath-1);}.cls-3{fill:#ffb200;}.cls-4{fill:#6f57ff;}.cls-5{fill:#fff;}.cls-6{fill:#6e57ff;isolation:isolate;opacity:.2;}</style><clipPath id="clippath"><rect class="cls-2" x="24.12" y="26.94" width="69.14" height="69.14"/></clipPath><clipPath id="clippath-1"><rect class="cls-2" x="24.12" y="26.94" width="69.14" height="69.14"/></clipPath></defs><rect class="cls-5" x="5.31" y="8.12" width="87.95" height="87.95" rx="12" ry="12"/><g class="cls-1"><path class="cls-6" d="M34.92,52.04c-.14-10.94,7.85-20.19,18.23-22.16-1.26-.28-2.66-.42-4.07-.42-12.34,0-22.44,10.1-22.3,22.44v22.02l.42-.28c2.1-2.1,4.91-3.09,7.71-3.09v-18.51Z"/></g><g class="cls-7"><path class="cls-4" d="M49.09,76.86c6.59,0,12.9-2.52,17.67-7.15,4.77-4.63,7.43-10.94,7.43-17.53s-2.52-13.04-7.15-17.81c-4.77-4.77-11.08-7.43-17.81-7.43s-13.04,2.66-17.67,7.43c-4.77,4.77-7.29,11.08-7.29,17.81v22.02c0,1.12.7,2.1,1.54,2.52.28.14.7.28,1.12.28.7,0,1.26-.28,1.82-.7,0,0,2.52-2.66,5.89-2.66,1.12,0,2.24.28,3.37.84,3.23,1.54,7.01,2.38,11.08,2.38h0ZM34.5,68.03c-1.68,0-3.37.28-4.91.98v-16.97c0-5.19,1.96-10.24,5.75-13.88,3.65-3.79,8.69-5.75,13.88-5.75s10.24,2.1,13.88,5.75c3.65,3.79,5.75,8.69,5.61,14.02-.14,10.66-8.97,19.35-19.63,19.35-3.09,0-6.03-.7-8.69-1.96-1.96-1.12-3.93-1.54-5.89-1.54h0Z"/></g><path class="cls-3" d="M57.22,51.06h-6.03v-6.03c0-1.12-.84-1.96-1.96-1.96s-1.96.84-1.96,1.96v6.03h-6.03c-1.12,0-1.96.84-1.96,1.96s.84,1.96,1.96,1.96h6.03v6.03c0,1.12.84,1.96,1.96,1.96s1.96-.84,1.96-1.96v-6.03h6.03c1.12,0,1.96-.84,1.96-1.96s-.84-1.96-1.96-1.96h0Z"/></svg>