<?xml version="1.0" encoding="UTF-8"?><svg id="Capa_1" xmlns="http://www.w3.org/2000/svg" viewBox="0 0 172.65 172.65"><defs><style>.cls-1{fill:#ffb200;}.cls-1,.cls-2{stroke-width:0px;}.cls-2,.cls-3{fill:#6f57ff;}.cls-3{stroke:#6f57ff;stroke-miterlimit:10;stroke-width:1.72px;}</style></defs><path class="cls-2" d="M78.54,123.95l-2.42-13.06c-.73-4.11-2.78-7.86-5.81-10.64l-10.77-10.04c-.6-.6-1.33-.97-2.06-1.21l-2.42-18.75c-.24-2.06-1.33-3.87-3.02-5.08-1.69-1.21-3.75-1.69-5.69-1.33-3.02.6-5.56,3.02-6.05,6.05l-4.6,25.04c-.73,4.35.12,8.71,2.66,12.22l12.22,17.54c-.48.48-.73,1.09-.73,1.69v12.94c0,1.33,1.09,2.42,2.42,2.42h26.13c1.33,0,2.42-1.09,2.42-2.42v-12.94c0-1.33-.97-2.42-2.3-2.42ZM40.56,95.77l4.48-25.04c.24-1.09,1.09-1.94,2.06-2.06.73-.12,1.45,0,1.94.48.6.36.97,1.09,1.09,1.81l2.42,18.39c-.73.36-1.33.73-1.81,1.33-1.94,2.06-2.06,5.2-.48,7.62l9.07,13.43c.73,1.09,2.3,1.45,3.39.6,1.09-.73,1.45-2.3.6-3.39l-9.19-13.55c-.36-.48-.24-1.09.12-1.57.24-.36.6-.36.85-.36s.6,0,.85.36l10.77,10.04c2.3,2.18,3.75,4.96,4.35,7.98l2.3,12.1h-17.42l-13.55-19.6c-1.69-2.54-2.42-5.56-1.81-8.59ZM76,136.9h-21.29v-7.98h21.29v7.98Z"/><path class="cls-2" d="M137.09,94.92l-4.48-25.04c-.6-3.02-3.02-5.44-6.05-6.05-2.06-.36-4.11.12-5.69,1.33-1.69,1.21-2.78,3.02-3.02,5.08l-2.42,18.75c-.73.24-1.45.73-2.06,1.21l-10.77,10.04c-3.02,2.9-5.08,6.53-5.81,10.64l-2.42,13.06c-1.33.12-2.3,1.09-2.3,2.42v12.94c0,1.33,1.09,2.42,2.42,2.42h26.13c1.33,0,2.42-1.09,2.42-2.42v-12.94c0-.73-.24-1.33-.73-1.69l12.22-17.54c2.42-3.63,3.39-7.98,2.54-12.22ZM118.1,136.9h-21.29v-7.98h21.29v7.98ZM130.44,104.36l-13.55,19.6h-17.66l2.3-12.1c.6-3.02,2.06-5.81,4.35-7.98l10.77-10.04c.36-.36.73-.36.85-.36.24,0,.6.12.85.36.36.48.36,1.09.12,1.57l-9.07,13.43c-.73,1.09-.48,2.66.6,3.39,1.09.73,2.66.48,3.39-.6l9.19-13.43c1.57-2.3,1.33-5.44-.48-7.62-.48-.6-1.21-.97-1.81-1.33l2.42-18.39c.12-.73.48-1.33,1.09-1.81.6-.36,1.33-.6,1.94-.48,1.09.24,1.94.97,2.06,2.06l4.48,25.04c.6,3.15,0,6.17-1.81,8.71Z"/><path class="cls-1" d="M86.41,41.94c1.33,0,2.42-1.09,2.42-2.42v-10.28c0-1.33-1.09-2.42-2.42-2.42s-2.42,1.09-2.42,2.42v10.28c0,1.33,1.09,2.42,2.42,2.42Z"/><path class="cls-1" d="M98.86,44.48c.36.12.6.24.97.24.97,0,1.81-.6,2.3-1.45l3.87-9.44c.48-1.21-.12-2.66-1.33-3.15-1.21-.48-2.66.12-3.15,1.33l-3.87,9.44c-.6,1.09,0,2.42,1.21,3.02Z"/><path class="cls-1" d="M70.8,43.15c.36.97,1.33,1.45,2.3,1.45.36,0,.6,0,.97-.24,1.21-.48,1.81-1.94,1.33-3.15l-3.87-9.44c-.48-1.21-1.94-1.81-3.15-1.33-1.21.48-1.81,1.94-1.33,3.15l3.75,9.56Z"/><path class="cls-3" d="M86.66,61.83c-.82,0-1.43.61-1.43,1.43v7.24c0,.51-.31.82-.82.82h-7.24c-.82,0-1.43.61-1.43,1.43s.61,1.43,1.43,1.43h7.24c.51,0,.82.31.82.82v7.24c0,.82.61,1.43,1.43,1.43s1.43-.61,1.43-1.43v-7.24c0-.41.31-.82.82-.82h7.24c.82,0,1.43-.61,1.43-1.43s-.61-1.43-1.43-1.43h-7.24c-.41,0-.82-.31-.82-.82v-7.24c0-.82-.61-1.43-1.43-1.43Z"/><path class="cls-1" d="M86.66,84.98c-1.55,0-2.77-1.22-2.77-2.77v-6.71h-6.71c-1.55,0-2.77-1.22-2.77-2.77s1.22-2.77,2.77-2.77h6.71v-6.71c0-1.55,1.22-2.77,2.77-2.77s2.77,1.22,2.77,2.77v6.71h6.71c1.55,0,2.77,1.22,2.77,2.77s-1.22,2.77-2.77,2.77h-6.71v6.71c0,1.55-1.22,2.77-2.77,2.77ZM77.18,72.65c-.07,0-.09.01-.09.08s.01.09.09.09h7.24c1.25,0,2.16.91,2.16,2.16v7.24c0,.15.17.15.17,0v-7.24c0-1.21.95-2.16,2.16-2.16h7.24c.07,0,.08-.01.08-.09s-.01-.08-.08-.08h-7.24c-1.21,0-2.16-.95-2.16-2.16v-7.24c0-.15-.17-.15-.17,0v7.24c0,1.25-.91,2.16-2.16,2.16h-7.24Z"/><path class="cls-3" d="M86.66,50.31c12.44,0,22.42,10.09,22.42,22.42s-9.99,22.42-22.42,22.42-22.42-9.99-22.42-22.42,10.09-22.42,22.42-22.42ZM86.66,52.04c-11.42,0-20.69,9.28-20.69,20.69s9.28,20.69,20.69,20.69,20.69-9.28,20.69-20.69-9.28-20.69-20.69-20.69Z"/><path class="cls-2" d="M86.66,96.5c-13.1,0-23.77-10.66-23.77-23.77s10.66-23.77,23.77-23.77,23.77,10.66,23.77,23.77-10.66,23.77-23.77,23.77ZM86.66,53.38c-10.67,0-19.35,8.68-19.35,19.35s8.68,19.35,19.35,19.35,19.35-8.68,19.35-19.35-8.68-19.35-19.35-19.35Z"/></svg>