<?xml version="1.0" standalone="no"?>
<!DOCTYPE svg PUBLIC "-//W3C//DTD SVG 20010904//EN"
 "http://www.w3.org/TR/2001/REC-SVG-20010904/DTD/svg10.dtd">
<svg version="1.0" xmlns="http://www.w3.org/2000/svg"
 width="225.000000pt" height="225.000000pt" viewBox="0 0 225.000000 225.000000"
 preserveAspectRatio="xMidYMid meet">

<g transform="translate(0.000000,225.000000) scale(0.100000,-0.100000)"
fill="#000000" stroke="none">
<path d="M270 1130 l0 -170 30 0 29 0 3 113 3 112 39 -113 38 -113 31 3 c29 3
32 7 66 108 l36 105 3 -107 3 -108 212 0 c239 0 264 6 299 71 l18 34 0 -53 0
-52 35 0 35 0 1 53 c0 45 2 49 12 32 63 -104 183 -124 259 -44 21 22 38 34 38
26 0 -25 54 -66 95 -72 52 -9 120 10 139 37 l15 21 30 -26 c59 -49 178 -44
220 10 13 15 21 41 21 63 0 49 -38 83 -112 100 -70 17 -88 27 -88 50 0 43 68
53 106 15 25 -25 84 -35 84 -15 0 26 -32 68 -60 80 -39 16 -134 9 -158 -13
-24 -22 -32 -21 -32 3 0 16 -7 20 -35 20 l-35 0 0 -128 c0 -112 -2 -131 -18
-145 -25 -23 -68 -21 -92 3 -18 18 -20 33 -20 145 l0 125 -35 0 c-34 0 -35 -1
-35 -36 l0 -37 -20 25 c-28 36 -72 51 -133 46 -59 -5 -95 -26 -124 -73 l-18
-30 -3 53 -3 53 -32 -3 c-30 -3 -32 -6 -38 -53 -3 -27 -7 -43 -7 -34 -3 28
-59 71 -104 80 -24 4 -134 8 -246 9 -234 0 -202 18 -250 -140 l-29 -95 -37
118 -38 117 -49 0 -49 0 0 -170z m528 -2 l3 -108 -91 0 -90 0 0 45 0 45 75 0
c73 0 75 1 75 25 0 24 -2 25 -75 25 l-75 0 0 40 0 41 88 -3 87 -3 3 -107z
m185 83 c40 -40 38 -140 -3 -173 -14 -11 -39 -18 -66 -18 l-44 0 0 111 0 112
47 -7 c26 -3 56 -15 66 -25z m387 4 c14 -15 35 -25 52 -25 28 0 28 -1 28 -60
0 -58 -1 -60 -26 -60 -16 0 -37 -12 -54 -30 -67 -72 -162 0 -147 112 11 83 95
118 147 63z m452 -109 c77 -24 100 -44 82 -73 -16 -25 -90 -30 -115 -7 -10 9
-19 23 -19 31 0 7 -11 13 -25 13 -23 0 -25 4 -25 41 0 36 2 40 15 29 8 -7 47
-22 87 -34z"/>
</g>
</svg>
