<svg id="Capa_1" data-name="Capa 1" xmlns="http://www.w3.org/2000/svg" width="32" height="31.67" viewBox="0 0 32 31.67"><title>logo-hominis</title><rect x="26.53" width="5.47" height="5.79" fill="#585298"/><polygon points="26.53 18.49 19.62 18.49 19.62 11.73 13.18 11.73 13.18 5.62 19.62 5.62 19.62 0 0 0 0 31.67 32 31.67 32 11.73 26.53 11.73 26.53 18.49" fill="#585298"/><rect x="26.53" width="5.47" height="5.79" fill="#c85760"/><polygon points="26.53 18.49 19.62 18.49 19.62 11.73 13.18 11.73 13.18 5.62 19.62 5.62 19.62 0 0 0 0 31.67 32 31.67 32 11.73 26.53 11.73 26.53 18.49" fill="#585298"/></svg>